<svg width="24" height="24" viewBox="0 0 30 30" fill="none" xmlns="http://www.w3.org/2000/svg"><circle cx="15" cy="15" r="15" fill="#D9D9D9"/><path d="M18.4491 14.408C19.3931 14.584 20.1691 15.056 20.7771 15.824C21.3851 16.592 21.6891 17.472 21.6891 18.464C21.6891 19.36 21.4651 20.152 21.0171 20.84C20.5851 21.512 19.9531 22.04 19.1211 22.424C18.2891 22.808 17.3051 23 16.1691 23H8.94506V6.248H15.8571C16.9931 6.248 17.9691 6.432 18.7851 6.8C19.6171 7.168 20.2411 7.68 20.6571 8.336C21.0891 8.992 21.3051 9.736 21.3051 10.568C21.3051 11.544 21.0411 12.36 20.5131 13.016C20.0011 13.672 19.3131 14.136 18.4491 14.408ZM12.3051 13.16H15.3771C16.1771 13.16 16.7931 12.984 17.2251 12.632C17.6571 12.264 17.8731 11.744 17.8731 11.072C17.8731 10.4 17.6571 9.88 17.2251 9.512C16.7931 9.144 16.1771 8.96 15.3771 8.96H12.3051V13.16ZM15.6891 20.264C16.5051 20.264 17.1371 20.072 17.5851 19.688C18.0491 19.304 18.2811 18.76 18.2811 18.056C18.2811 17.336 18.0411 16.776 17.5611 16.376C17.0811 15.96 16.4331 15.752 15.6171 15.752H12.3051V20.264H15.6891Z" fill="black"/></svg>