<svg width="24" height="24" viewBox="0 0 30 30" fill="none" xmlns="http://www.w3.org/2000/svg"><circle cx="15" cy="15" r="15" fill="#D9D9D9"/><path d="M6.62906 14.6C6.62906 12.952 6.99706 11.48 7.73306 10.184C8.48506 8.872 9.50106 7.856 10.7811 7.136C12.0771 6.4 13.5251 6.032 15.1251 6.032C16.9971 6.032 18.6371 6.512 20.0451 7.472C21.4531 8.432 22.4371 9.76 22.9971 11.456H19.1331C18.7491 10.656 18.2051 10.056 17.5011 9.656C16.8131 9.256 16.0131 9.056 15.1011 9.056C14.1251 9.056 13.2531 9.288 12.4851 9.752C11.7331 10.2 11.1411 10.84 10.7091 11.672C10.2931 12.504 10.0851 13.48 10.0851 14.6C10.0851 15.704 10.2931 16.68 10.7091 17.528C11.1411 18.36 11.7331 19.008 12.4851 19.472C13.2531 19.92 14.1251 20.144 15.1011 20.144C16.0131 20.144 16.8131 19.944 17.5011 19.544C18.2051 19.128 18.7491 18.52 19.1331 17.72H22.9971C22.4371 19.432 21.4531 20.768 20.0451 21.728C18.6531 22.672 17.0131 23.144 15.1251 23.144C13.5251 23.144 12.0771 22.784 10.7811 22.064C9.50106 21.328 8.48506 20.312 7.73306 19.016C6.99706 17.72 6.62906 16.248 6.62906 14.6Z" fill="black"/></svg>