<svg width="24" height="24" viewBox="0 0 30 30" fill="none" xmlns="http://www.w3.org/2000/svg"><circle cx="15" cy="15" r="15" fill="#D9D9D9"/><path d="M14.9104 6.248C16.6704 6.248 18.2144 6.592 19.5424 7.28C20.8864 7.968 21.9184 8.952 22.6384 10.232C23.3744 11.496 23.7424 12.968 23.7424 14.648C23.7424 16.328 23.3744 17.8 22.6384 19.064C21.9184 20.312 20.8864 21.28 19.5424 21.968C18.2144 22.656 16.6704 23 14.9104 23H9.05444V6.248H14.9104ZM14.7904 20.144C16.5504 20.144 17.9104 19.664 18.8704 18.704C19.8304 17.744 20.3104 16.392 20.3104 14.648C20.3104 12.904 19.8304 11.544 18.8704 10.568C17.9104 9.576 16.5504 9.08 14.7904 9.08H12.4144V20.144H14.7904Z" fill="black"/></svg>